<mxfile host="app.diagrams.net" modified="2022-11-24T00:23:55.917Z" agent="5.0 (Windows NT 10.0; Win64; x64) AppleWebKit/537.36 (KHTML, like Gecko) Chrome/107.0.0.0 Safari/537.36 Edg/107.0.1418.35" etag="xh6y9lj-xue47dk2k9qM" version="20.5.1" type="github">
  <diagram name="Page-1" id="e56a1550-8fbb-45ad-956c-1786394a9013">
    <mxGraphModel dx="1730" dy="912" grid="1" gridSize="10" guides="1" tooltips="1" connect="1" arrows="1" fold="1" page="1" pageScale="1" pageWidth="1100" pageHeight="850" background="none" math="0" shadow="0">
      <root>
        <mxCell id="0" />
        <mxCell id="1" parent="0" />
        <mxCell id="2e49270ec7c68f3f-56" value="" style="edgeStyle=orthogonalEdgeStyle;html=1;endArrow=ERzeroToMany;endFill=1;startArrow=ERzeroToMany;labelBackgroundColor=none;fontFamily=Verdana;fontSize=14;entryX=0;entryY=0.5;exitX=0;exitY=0.5;" parent="1" source="2e49270ec7c68f3f-49" edge="1">
          <mxGeometry width="100" height="100" relative="1" as="geometry">
            <mxPoint x="120" y="650" as="sourcePoint" />
            <mxPoint x="290" y="481" as="targetPoint" />
            <Array as="points">
              <mxPoint x="250" y="621" />
              <mxPoint x="250" y="481" />
            </Array>
          </mxGeometry>
        </mxCell>
        <mxCell id="fGkR3jemJs3sFAP6527V-2" value="Employee" style="shape=table;startSize=30;container=1;collapsible=1;childLayout=tableLayout;fixedRows=1;rowLines=0;fontStyle=1;align=center;resizeLast=1;" vertex="1" parent="1">
          <mxGeometry x="60" y="160" width="180" height="160" as="geometry" />
        </mxCell>
        <mxCell id="fGkR3jemJs3sFAP6527V-3" value="" style="shape=tableRow;horizontal=0;startSize=0;swimlaneHead=0;swimlaneBody=0;fillColor=none;collapsible=0;dropTarget=0;points=[[0,0.5],[1,0.5]];portConstraint=eastwest;top=0;left=0;right=0;bottom=1;" vertex="1" parent="fGkR3jemJs3sFAP6527V-2">
          <mxGeometry y="30" width="180" height="30" as="geometry" />
        </mxCell>
        <mxCell id="fGkR3jemJs3sFAP6527V-4" value="PK" style="shape=partialRectangle;connectable=0;fillColor=none;top=0;left=0;bottom=0;right=0;fontStyle=1;overflow=hidden;" vertex="1" parent="fGkR3jemJs3sFAP6527V-3">
          <mxGeometry width="30" height="30" as="geometry">
            <mxRectangle width="30" height="30" as="alternateBounds" />
          </mxGeometry>
        </mxCell>
        <mxCell id="fGkR3jemJs3sFAP6527V-5" value="Employee_ID" style="shape=partialRectangle;connectable=0;fillColor=none;top=0;left=0;bottom=0;right=0;align=left;spacingLeft=6;fontStyle=5;overflow=hidden;" vertex="1" parent="fGkR3jemJs3sFAP6527V-3">
          <mxGeometry x="30" width="150" height="30" as="geometry">
            <mxRectangle width="150" height="30" as="alternateBounds" />
          </mxGeometry>
        </mxCell>
        <mxCell id="fGkR3jemJs3sFAP6527V-6" value="" style="shape=tableRow;horizontal=0;startSize=0;swimlaneHead=0;swimlaneBody=0;fillColor=none;collapsible=0;dropTarget=0;points=[[0,0.5],[1,0.5]];portConstraint=eastwest;top=0;left=0;right=0;bottom=0;" vertex="1" parent="fGkR3jemJs3sFAP6527V-2">
          <mxGeometry y="60" width="180" height="30" as="geometry" />
        </mxCell>
        <mxCell id="fGkR3jemJs3sFAP6527V-7" value="" style="shape=partialRectangle;connectable=0;fillColor=none;top=0;left=0;bottom=0;right=0;editable=1;overflow=hidden;" vertex="1" parent="fGkR3jemJs3sFAP6527V-6">
          <mxGeometry width="30" height="30" as="geometry">
            <mxRectangle width="30" height="30" as="alternateBounds" />
          </mxGeometry>
        </mxCell>
        <mxCell id="fGkR3jemJs3sFAP6527V-8" value="Row 1" style="shape=partialRectangle;connectable=0;fillColor=none;top=0;left=0;bottom=0;right=0;align=left;spacingLeft=6;overflow=hidden;" vertex="1" parent="fGkR3jemJs3sFAP6527V-6">
          <mxGeometry x="30" width="150" height="30" as="geometry">
            <mxRectangle width="150" height="30" as="alternateBounds" />
          </mxGeometry>
        </mxCell>
        <mxCell id="fGkR3jemJs3sFAP6527V-9" value="" style="shape=tableRow;horizontal=0;startSize=0;swimlaneHead=0;swimlaneBody=0;fillColor=none;collapsible=0;dropTarget=0;points=[[0,0.5],[1,0.5]];portConstraint=eastwest;top=0;left=0;right=0;bottom=0;" vertex="1" parent="fGkR3jemJs3sFAP6527V-2">
          <mxGeometry y="90" width="180" height="30" as="geometry" />
        </mxCell>
        <mxCell id="fGkR3jemJs3sFAP6527V-10" value="" style="shape=partialRectangle;connectable=0;fillColor=none;top=0;left=0;bottom=0;right=0;editable=1;overflow=hidden;" vertex="1" parent="fGkR3jemJs3sFAP6527V-9">
          <mxGeometry width="30" height="30" as="geometry">
            <mxRectangle width="30" height="30" as="alternateBounds" />
          </mxGeometry>
        </mxCell>
        <mxCell id="fGkR3jemJs3sFAP6527V-11" value="Row 2" style="shape=partialRectangle;connectable=0;fillColor=none;top=0;left=0;bottom=0;right=0;align=left;spacingLeft=6;overflow=hidden;" vertex="1" parent="fGkR3jemJs3sFAP6527V-9">
          <mxGeometry x="30" width="150" height="30" as="geometry">
            <mxRectangle width="150" height="30" as="alternateBounds" />
          </mxGeometry>
        </mxCell>
        <mxCell id="fGkR3jemJs3sFAP6527V-12" value="" style="shape=tableRow;horizontal=0;startSize=0;swimlaneHead=0;swimlaneBody=0;fillColor=none;collapsible=0;dropTarget=0;points=[[0,0.5],[1,0.5]];portConstraint=eastwest;top=0;left=0;right=0;bottom=0;" vertex="1" parent="fGkR3jemJs3sFAP6527V-2">
          <mxGeometry y="120" width="180" height="30" as="geometry" />
        </mxCell>
        <mxCell id="fGkR3jemJs3sFAP6527V-13" value="" style="shape=partialRectangle;connectable=0;fillColor=none;top=0;left=0;bottom=0;right=0;editable=1;overflow=hidden;" vertex="1" parent="fGkR3jemJs3sFAP6527V-12">
          <mxGeometry width="30" height="30" as="geometry">
            <mxRectangle width="30" height="30" as="alternateBounds" />
          </mxGeometry>
        </mxCell>
        <mxCell id="fGkR3jemJs3sFAP6527V-14" value="Row 3" style="shape=partialRectangle;connectable=0;fillColor=none;top=0;left=0;bottom=0;right=0;align=left;spacingLeft=6;overflow=hidden;" vertex="1" parent="fGkR3jemJs3sFAP6527V-12">
          <mxGeometry x="30" width="150" height="30" as="geometry">
            <mxRectangle width="150" height="30" as="alternateBounds" />
          </mxGeometry>
        </mxCell>
        <mxCell id="fGkR3jemJs3sFAP6527V-15" value="&lt;span data-meta=&quot;&lt;--(miro-data-v1)tl2kroutqq+gnq+gn111oZynrqBnXZ2qnK2fhJ9ddV2wk6WRi32IfaFynnhdZ12fnK+cXXW2XaqdpaCer65ddZa2XbKkn6Kgr3+cr5xddbZdpa6qqV11tl2upLWgXXW2XbKkn6+jXXVua21nXaOgpKKjr111bWxzuGddraqvnK+kqqlddbZdraqvnK+kqqlddWu4Z12unpynoF11tl2unpynoF11bLhnXZqrqq6kr6SqqV11tl2qoaGuoK+Ls111tl2zXXVocGlxc29ub2xzc3Frc2tza22gaGxvZ120XXVruLhnXauqrqSvpKqpXXW2XbNddWhwaXFzb25vbHNzcWtza3NrbaBobG9nXbRddWu4Z12aq5ytoKmvXXWpsKenZ12ur7SnoF11XbaXXa+el111bHJsa3Fsc2eXXZ2el111bHFycnJtbHBnl12dqpdddWtpb2eXXZ2tnpdddWxybGtxbHNnl12drbKXXXVtZ5ddna2ql111bGeXXZ2trpdddW1nl12hoamXXXVsa2eXXa+cl111l12el11nl12vnLGXXXWXXaiXXWeXXaGul111bG+4XWddrp6joKicXXW2XaSfXXVdoK2faKagtGihpKCnn11nXZ+cr5xddbZdp6Sppq5ddbZdrq+0p6CuXXW2XZyaoKmfXXVsbGddnJqur5ytr111bGu4uGddr6Czr65ddbZdr6Svp6BddbZdr6Czr111XXereXeuq5ypW66vtKegeJddnZyepqKtqrCpn2ieqqeqrXVbr62cqa6rnK2gqa92W56qp6qtdVutop1jbXFnW21xZ1ttcWR2l115gKirp6q0oKB3aq6rnKl5d2qreV1nXa6vtKegrl11tl2hrl11bG9nXaGhqV11bGtnXa+cXXVdnl1nXa+csV11XahduLhnXa2qsq5praqybGmmoLRddbZdr6Czr111XXereXeuq5ypW66vtKegeJddnZyepqKtqrCpn2ieqqeqrXVbr62cqa6rnK2gqa92l115i4Z3aq6rnKl5d2qreV1nXa6vtKegrl11tl2hrl11bG9nXaGhqV11bGtnXa+cXXVdp11nXa+csV11XahduLhnXa2qsq5praqybGmhpKCnn111tl2voLOvXXVdd6t5d66rnKlbrq+0p6B4l12dnJ6moq2qsKmfaJ6qp6qtdVuvrZyprqucraCpr3aXXXmAqKunqrSgoJqEf3dqrqucqXl3aqt5XWddrq+0p6CuXXW2XaGuXXVsb2ddoaGpXXVsa2ddr5xddV2nXWddr5yxXXVdqF24uGddraqyrmluroGjhamabmmmoLRddbZdr6Czr111XXereXedrXl3aqt5XWddrq+0p6CuXXW2XaGuXXVsb2ddoaGpXXVsa2ddr5xddV2nXWddr5yxXXVdqF24uGddraqyrmluroGjhamabmmhpKCnn111tl2voLOvXXVdd6t5d66rnKlbrq+0p6B4l12dnJ6moq2qsKmfaJ6qp6qtdVuvrZyprqucraCpr3aXXXmAqKunqrSgoJqJnKigd2quq5ypeXdqq3ldZ12ur7SnoK5ddbZdoa5ddWxvZ12hoalddWxrZ12vnF11XaddZ12vnLFddV2oXbi4Z12tqrKuaa2qsm1ppqC0XXW2Xa+gs69ddV13q3l3na15d2qreV1nXa6vtKegrl11tl2hrl11bG9nXaGhqV11bGtnXa+cXXVdp11nXa+csV11XahduLhnXa2qsq5praqybWmhpKCnn111tl2voLOvXXVdd6t5d66rnKlbrq+0p6B4l12dnJ6moq2qsKmfaJ6qp6qtdVuvrZyprqucraCpr3aXXXmAqKunqrSgoJqAqJykp3dqrqucqXl3aqt5XWddrq+0p6CuXXW2XaGuXXVsb2ddoaGpXXVsa2ddr5xddV2nXWddr5yxXXVdqF24uGddraqyrmmtqrJuaaagtF11tl2voLOvXXVdd6t5d52teXdqq3ldZ12ur7SnoK5ddbZdoa5ddWxvZ12hoalddWxrZ12vnF11XaddZ12vnLFddV2oXbi4Z12tqrKuaa2qsm5poaSgp59ddbZdr6Czr111XXereXeuq5ypW66vtKegeJddnZyepqKtqrCpn2ieqqeqrXVbr62cqa6rnK2gqa92l115gKirp6q0oKCafqqpr5yer4mwqJ2grXdqrqucqXl3aqt5XWddrq+0p6CuXXW2XaGuXXVsb2ddoaGpXXVsa2ddr5xddV2nXWddr5yxXXVdqF24uGddraqyrmlskpKKiKuacmmmoLRddbZdr6Czr111XXereYGGd2qreV1nXa6vtKegrl11tl2hrl11bG9nXaGhqV11bGtnXa+cXXVdp11nXa+csV11XahduLhnXa2qsq5pbJKSioirmnJpoaSgp59ddbZdr6Czr111XXereX+gq5ytr6igqa+ahH93aqt5XWddrq+0p6CuXXW2XaGuXXVsb2ddoaGpXXVsa2ddr5xddV2nXWddr5yxXXVdqF24uLhnXa6vtKegrl11tl2dql11a2lvuGddpK+grZyvqq2uXXW2Xa2qsq5ddbZdpK+gqK6En65ddZZdraqybF1nXW6ugaOFqZpuXWddraqybV1nXa2qsm5dZ11skpKKiKuacl2YuLhnXa2grqqwrZ6grl11tl2cn5+NqrKEnqqpXXVdq6ewrmiepK2ep6Booq2ctF1nXZyfn42qsoSeqqmDqrGgrV11XaunsK5onqStnqegaJ2nsKBduGddoaqtqLCnnJGcp7Cgrl11tl2ypJ+vo111bmttZ12joKSio69ddW1sc2ddnKevoK2pnK+gXXVsZ12voLOvi5yfn6Spol11bHFnXZ2qrZ+grY2cn6Swrl11c2ddr6Svp6B8p6+gramcr6BddWy4uLi4Z12vtKugXXVdrq+gqZ6kp124Z12vtKugXXVsb2ddpJ9ddWu4mGddqKCvnF11tri4Z12xoK2upKqpXXVtZ12jqq6vXXVdqKStqmmeqqhduA==(/miro-data-v1)--&gt;&quot;&gt;&lt;/span&gt;" style="text;whiteSpace=wrap;html=1;" vertex="1" parent="1">
          <mxGeometry x="730" y="60" width="30" height="20" as="geometry" />
        </mxCell>
        <mxCell id="fGkR3jemJs3sFAP6527V-16" value="&lt;span data-meta=&quot;&lt;--(miro-data-v1)tl2kroutqq+gnq+gn111oZynrqBnXZ2qnK2fhJ9ddV2wk6WRi32IfaFynnhdZ12fnK+cXXW2XaqdpaCer65ddZa2XbKkn6Kgr3+cr5xddbZdpa6qqV11tl2upLWgXXW2XbKkn6+jXXVua21nXaOgpKKjr111bWxzuGddraqvnK+kqqlddbZdraqvnK+kqqlddWu4Z12unpynoF11tl2unpynoF11bLhnXZqrqq6kr6SqqV11tl2qoaGuoK+Ls111tl2zXXVocGlxc29ub2xzc3Frc2tza22gaGxvZ120XXVruLhnXauqrqSvpKqpXXW2XbNddWhwaXFzb25vbHNzcWtza3NrbaBobG9nXbRddWu4Z12aq5ytoKmvXXWpsKenZ12ur7SnoF11XbaXXa+el111bHJsa3Fsc2eXXZ2el111bHFycnJtbHBnl12dqpdddWtpb2eXXZ2tnpdddWxybGtxbHNnl12drbKXXXVtZ5ddna2ql111bGeXXZ2trpdddW1nl12hoamXXXVsa2eXXa+cl111l12el11nl12vnLGXXXWXXaiXXWeXXaGul111bG+4XWddrp6joKicXXW2XaSfXXVdoK2faKagtGihpKCnn11nXZ+cr5xddbZdp6Sppq5ddbZdrq+0p6CuXXW2XZyaoKmfXXVsbGddnJqur5ytr111bGu4uGddr6Czr65ddbZdr6Svp6BddbZdr6Czr111XXereXeuq5ypW66vtKegeJddnZyepqKtqrCpn2ieqqeqrXVbr62cqa6rnK2gqa92W56qp6qtdVutop1jbXFnW21xZ1ttcWR2l115gKirp6q0oKB3aq6rnKl5d2qreV1nXa6vtKegrl11tl2hrl11bG9nXaGhqV11bGtnXa+cXXVdnl1nXa+csV11XahduLhnXa2qsq5praqybGmmoLRddbZdr6Czr111XXereXeuq5ypW66vtKegeJddnZyepqKtqrCpn2ieqqeqrXVbr62cqa6rnK2gqa92l115i4Z3aq6rnKl5d2qreV1nXa6vtKegrl11tl2hrl11bG9nXaGhqV11bGtnXa+cXXVdp11nXa+csV11XahduLhnXa2qsq5praqybGmhpKCnn111tl2voLOvXXVdd6t5d66rnKlbrq+0p6B4l12dnJ6moq2qsKmfaJ6qp6qtdVuvrZyprqucraCpr3aXXXmAqKunqrSgoJqEf3dqrqucqXl3aqt5XWddrq+0p6CuXXW2XaGuXXVsb2ddoaGpXXVsa2ddr5xddV2nXWddr5yxXXVdqF24uGddraqyrmluroGjhamabmmmoLRddbZdr6Czr111XXereXedrXl3aqt5XWddrq+0p6CuXXW2XaGuXXVsb2ddoaGpXXVsa2ddr5xddV2nXWddr5yxXXVdqF24uGddraqyrmluroGjhamabmmhpKCnn111tl2voLOvXXVdd6t5d66rnKlbrq+0p6B4l12dnJ6moq2qsKmfaJ6qp6qtdVuvrZyprqucraCpr3aXXXmAqKunqrSgoJqJnKigd2quq5ypeXdqq3ldZ12ur7SnoK5ddbZdoa5ddWxvZ12hoalddWxrZ12vnF11XaddZ12vnLFddV2oXbi4Z12tqrKuaa2qsm1ppqC0XXW2Xa+gs69ddV13q3l3na15d2qreV1nXa6vtKegrl11tl2hrl11bG9nXaGhqV11bGtnXa+cXXVdp11nXa+csV11XahduLhnXa2qsq5praqybWmhpKCnn111tl2voLOvXXVdd6t5d66rnKlbrq+0p6B4l12dnJ6moq2qsKmfaJ6qp6qtdVuvrZyprqucraCpr3aXXXmAqKunqrSgoJqAqJykp3dqrqucqXl3aqt5XWddrq+0p6CuXXW2XaGuXXVsb2ddoaGpXXVsa2ddr5xddV2nXWddr5yxXXVdqF24uGddraqyrmmtqrJuaaagtF11tl2voLOvXXVdd6t5d52teXdqq3ldZ12ur7SnoK5ddbZdoa5ddWxvZ12hoalddWxrZ12vnF11XaddZ12vnLFddV2oXbi4Z12tqrKuaa2qsm5poaSgp59ddbZdr6Czr111XXereXeuq5ypW66vtKegeJddnZyepqKtqrCpn2ieqqeqrXVbr62cqa6rnK2gqa92l115gKirp6q0oKCafqqpr5yer4mwqJ2grXdqrqucqXl3aqt5XWddrq+0p6CuXXW2XaGuXXVsb2ddoaGpXXVsa2ddr5xddV2nXWddr5yxXXVdqF24uGddraqyrmlskpKKiKuacmmmoLRddbZdr6Czr111XXereYGGd2qreV1nXa6vtKegrl11tl2hrl11bG9nXaGhqV11bGtnXa+cXXVdp11nXa+csV11XahduLhnXa2qsq5pbJKSioirmnJpoaSgp59ddbZdr6Czr111XXereX+gq5ytr6igqa+ahH93aqt5XWddrq+0p6CuXXW2XaGuXXVsb2ddoaGpXXVsa2ddr5xddV2nXWddr5yxXXVdqF24uLhnXa6vtKegrl11tl2dql11a2lvuGddpK+grZyvqq2uXXW2Xa2qsq5ddbZdpK+gqK6En65ddZZdraqybF1nXW6ugaOFqZpuXWddraqybV1nXa2qsm5dZ11skpKKiKuacl2YuLhnXa2grqqwrZ6grl11tl2cn5+NqrKEnqqpXXVdq6ewrmiepK2ep6Booq2ctF1nXZyfn42qsoSeqqmDqrGgrV11XaunsK5onqStnqegaJ2nsKBduGddoaqtqLCnnJGcp7Cgrl11tl2ypJ+vo111bmttZ12joKSio69ddW1sc2ddnKevoK2pnK+gXXVsZ12voLOvi5yfn6Spol11bHFnXZ2qrZ+grY2cn6Swrl11c2ddr6Svp6B8p6+gramcr6BddWy4uLi4Z12vtKugXXVdrq+gqZ6kp124Z12vtKugXXVsb2ddpJ9ddWu4mGddqKCvnF11tri4Z12xoK2upKqpXXVtZ12jqq6vXXVdqKStqmmeqqhduA==(/miro-data-v1)--&gt;&quot;&gt;&lt;/span&gt;" style="text;whiteSpace=wrap;html=1;" vertex="1" parent="1">
          <mxGeometry x="680" y="320" width="30" height="20" as="geometry" />
        </mxCell>
      </root>
    </mxGraphModel>
  </diagram>
</mxfile>
